<?xml version="1.0" standalone="no"?>
<!DOCTYPE svg PUBLIC "-//W3C//DTD SVG 20010904//EN"
 "http://www.w3.org/TR/2001/REC-SVG-20010904/DTD/svg10.dtd">
<svg version="1.0" xmlns="http://www.w3.org/2000/svg"
 width="896.000000pt" height="896.000000pt" viewBox="0 0 896.000000 896.000000"
 preserveAspectRatio="xMidYMid meet">

<g transform="translate(0.000000,896.000000) scale(0.100000,-0.100000)"
fill="#000000" stroke="none">
<path d="M0 4480 l0 -4480 4480 0 4480 0 0 4480 0 4480 -4480 0 -4480 0 0
-4480z m4074 2426 c48 -104 85 -193 84 -197 -3 -8 -211 447 -223 486 -9 29 39
-71 139 -289z m-839 144 c10 -11 16 -20 13 -20 -3 0 -13 9 -23 20 -10 11 -16
20 -13 20 3 0 13 -9 23 -20z m1428 -37 c-3 -32 -10 -62 -16 -68 -6 -7 -8 6 -3
39 3 27 6 57 6 67 0 11 4 19 9 19 6 0 7 -25 4 -57z m-1368 -13 c10 -11 16 -20
13 -20 -3 0 -13 9 -23 20 -10 11 -16 20 -13 20 3 0 13 -9 23 -20z m2258 -62
c-147 -188 -338 -424 -346 -427 -14 -5 -5 7 182 242 91 114 167 205 169 202 3
-2 0 -10 -5 -17z m-2158 -18 c10 -11 16 -20 13 -20 -3 0 -13 9 -23 20 -10 11
-16 20 -13 20 3 0 13 -9 23 -20z m50 -40 c10 -11 16 -20 13 -20 -3 0 -13 9
-23 20 -10 11 -16 20 -13 20 3 0 13 -9 23 -20z m85 -398 c0 -13 -12 -22 -22
-16 -10 6 -1 24 13 24 5 0 9 -4 9 -8z m1003 -42 c90 -11 251 -57 322 -93 23
-12 66 -21 105 -24 46 -2 70 -9 85 -23 24 -23 67 -40 103 -41 24 0 25 -1 7 -9
-11 -5 -32 -9 -46 -9 -54 -2 -52 -24 8 -82 73 -71 167 -197 208 -279 106 -213
132 -477 71 -725 -18 -72 -21 -102 -13 -107 17 -10 131 -21 219 -21 77 0 147
23 174 58 5 7 15 10 22 6 7 -4 -10 -20 -45 -40 -51 -31 -62 -34 -147 -35 -50
0 -127 3 -171 7 -56 6 -77 5 -69 -2 16 -17 241 -43 309 -37 41 4 54 3 40 -3
-32 -15 -163 -12 -264 5 -97 17 -133 13 -62 -6 23 -6 41 -13 41 -16 0 -3 -8
-3 -17 -1 -51 14 -73 16 -73 8 0 -13 215 -51 290 -51 80 1 176 23 210 48 20
16 25 28 24 63 -1 43 1 42 22 -16 6 -19 7 -18 14 5 7 21 8 21 9 5 1 -11 -13
-31 -32 -46 -47 -37 -56 -42 -112 -55 l-50 -12 39 -1 c62 -1 116 19 129 48 11
25 11 25 15 -13 2 -26 -4 -54 -22 -89 -18 -38 -22 -53 -13 -59 7 -4 5 -7 -8
-7 -11 0 -47 -5 -80 -11 -78 -14 -209 -1 -381 40 l-129 31 -30 -38 c-96 -122
-202 -215 -331 -289 -71 -40 -216 -95 -247 -93 -7 0 2 5 18 11 182 60 267 108
350 197 31 34 78 70 85 66 12 -7 82 74 74 87 -5 7 -2 8 6 3 10 -6 12 -4 7 9
-5 11 -3 15 5 10 8 -5 9 -2 5 9 -3 10 -2 17 4 17 6 0 7 5 4 11 -5 7 -14 4 -28
-8 -20 -17 -21 -17 -8 0 12 15 12 19 -4 31 -16 12 -15 13 11 9 21 -3 32 1 42
17 10 16 10 21 0 24 -7 3 -43 14 -79 26 -65 20 -112 32 -136 33 -9 0 -9 6 -2
19 9 16 12 17 25 4 8 -8 22 -17 32 -20 9 -2 50 -14 90 -26 40 -11 76 -18 81
-15 6 3 12 1 16 -5 3 -5 13 -10 22 -10 35 0 -10 28 -80 49 -39 12 -114 38
-166 57 -85 31 -129 38 -91 14 19 -12 5 -13 -18 -1 -30 16 -222 91 -232 91 -6
0 -10 -4 -10 -8 0 -10 43 -31 130 -64 110 -42 138 -49 164 -42 32 8 33 -2 4
-33 -23 -24 -38 -30 -38 -13 0 6 6 10 14 10 25 0 27 17 3 19 -12 1 -33 2 -46
4 -65 6 -3 -45 77 -63 28 -7 32 -6 27 7 -4 13 -3 14 9 4 8 -7 21 -9 28 -5 10
5 11 4 1 -7 -19 -19 -16 -29 10 -30 12 0 31 -4 42 -9 14 -6 7 -7 -21 -3 -25 3
-51 0 -65 -7 -24 -13 -24 -13 -6 7 18 20 17 21 -33 33 -41 10 -54 10 -68 -1
-15 -13 -16 -12 -3 4 13 16 13 20 0 28 -8 5 -24 9 -36 9 -12 0 -23 3 -25 8 -5
12 -130 62 -139 56 -5 -3 -9 0 -9 6 0 6 -16 18 -36 26 -35 15 -38 14 -63 -8
l-26 -22 22 23 21 24 -46 23 c-26 12 -63 29 -82 37 -19 8 -61 27 -92 40 -32
14 -58 24 -58 21 0 -3 10 -24 21 -47 28 -55 12 -39 -21 20 -20 38 -38 54 -95
84 l-70 38 -13 -22 c-13 -22 -13 -22 -9 4 3 24 -4 30 -73 67 -73 38 -79 39
-96 24 -17 -16 -17 -16 -5 1 8 9 12 19 10 21 -2 2 -25 15 -51 30 -64 37 -61
43 4 10 42 -21 56 -24 70 -15 15 9 27 7 61 -13 78 -45 162 -87 232 -117 113
-49 108 -44 -35 31 -74 39 -151 80 -170 92 -42 25 -131 75 -220 123 -36 20
-119 69 -185 110 -66 41 -135 82 -152 91 -18 9 -33 20 -33 25 0 10 23 0 82
-38 41 -25 48 -27 48 -14 0 5 -30 25 -67 44 -112 59 -342 231 -425 319 -88 91
-109 138 -87 191 13 30 90 87 118 87 9 0 -7 -14 -36 -30 -29 -17 -57 -40 -64
-51 -19 -36 5 -89 72 -163 59 -64 234 -203 331 -262 25 -16 104 -66 175 -110
216 -137 461 -272 434 -241 -7 9 -23 19 -34 23 -12 3 -47 22 -77 40 -30 19
-116 70 -190 114 -187 109 -300 181 -300 191 0 14 7 11 57 -25 27 -18 102 -65
168 -103 66 -38 143 -83 170 -99 55 -32 96 -51 80 -36 -5 5 -66 42 -135 82
-167 98 -349 219 -435 289 -103 83 -205 181 -221 212 -31 61 -8 122 51 134 29
6 29 6 -7 -16 -21 -13 -40 -31 -43 -40 -19 -60 120 -198 365 -363 47 -32 73
-47 58 -34 -15 13 -38 31 -52 41 l-25 17 46 68 c70 101 225 251 313 302 213
125 412 167 653 140z m1147 -4 c0 -11 -19 -15 -25 -6 -3 5 1 10 9 10 9 0 16
-2 16 -4z m-2443 -72 c-3 -3 -12 -4 -19 -1 -8 3 -5 6 6 6 11 1 17 -2 13 -5z
m-177 -18 c-6 -8 -15 -36 -20 -63 l-8 -48 -1 44 c-1 29 5 51 16 63 19 21 31
25 13 4z m-180 -11 c-12 -15 -30 -12 -30 6 0 5 10 9 21 9 18 0 19 -2 9 -15z
m399 -175 c18 -23 31 -43 28 -46 -5 -5 -47 49 -65 83 -7 12 -11 37 -11 55 1
30 2 30 8 -9 4 -25 21 -59 40 -83z m-301 85 c-3 -3 -9 2 -12 12 -6 14 -5 15 5
6 7 -7 10 -15 7 -18z m140 -178 c58 -60 191 -164 297 -232 33 -22 62 -41 65
-43 2 -1 -2 -13 -9 -24 -12 -19 -11 -24 8 -39 29 -23 27 -33 -3 -14 -23 15
-24 15 -39 -33 -25 -74 -40 -226 -35 -342 4 -81 3 -95 -4 -60 -22 107 12 438
50 482 7 9 11 21 8 26 -3 6 -63 50 -133 99 -128 89 -270 217 -292 263 l-12 25
21 -25 c12 -14 47 -51 78 -83z m-93 11 c51 -52 56 -60 20 -28 -56 50 -64 58
-84 83 -29 36 -3 14 64 -55z m370 -15 c23 -26 61 -61 84 -78 22 -16 41 -34 41
-38 0 -13 -48 24 -117 90 -52 48 -63 64 -62 88 1 23 3 25 6 8 2 -12 24 -44 48
-70z m2260 7 c3 -5 1 -10 -4 -10 -6 0 -11 5 -11 10 0 6 2 10 4 10 3 0 8 -4 11
-10z m-2519 -92 l29 -33 -32 29 c-31 28 -38 36 -30 36 2 0 16 -15 33 -32z
m3011 -124 c-7 -7 -193 -34 -227 -32 -14 0 27 8 90 18 139 21 145 22 137 14z
m-332 -49 c-44 -8 -91 -13 -105 -13 -36 1 109 26 150 26 19 0 -1 -6 -45 -13z
m-2897 -36 c35 -6 61 -13 58 -16 -7 -7 -189 18 -206 29 -17 10 44 5 148 -13z
m618 -63 c0 -14 -6 -22 -13 -19 -7 3 -13 -1 -13 -8 0 -7 -3 -10 -6 -7 -5 5 23
58 31 58 2 0 2 -11 1 -24z m-59 -58 c-3 -8 -6 -5 -6 6 -1 11 2 17 5 13 3 -3 4
-12 1 -19z m192 -45 c30 -18 51 -33 47 -33 -13 0 -107 57 -136 81 l-25 21 30
-18 c17 -10 54 -33 84 -51z m132 -57 c-9 -11 -3 -19 34 -41 26 -15 45 -29 42
-31 -2 -3 -27 9 -55 27 -41 25 -48 34 -39 45 16 18 33 18 18 0z m124 -51 l20
-16 -20 10 c-11 5 -29 17 -40 26 l-20 16 20 -10 c11 -5 29 -17 40 -26z m1835
15 c0 -5 -16 -10 -35 -10 -19 0 -35 5 -35 10 0 6 16 10 35 10 19 0 35 -4 35
-10z m-2176 -16 c3 -8 2 -12 -4 -9 -6 3 -10 10 -10 16 0 14 7 11 14 -7z m2238
-299 c12 -16 17 -25 12 -20 -5 6 -57 60 -114 120 l-105 110 93 -90 c52 -49
103 -103 114 -120z m-2167 175 c-3 -5 -11 -10 -16 -10 -6 0 -7 5 -4 10 3 6 11
10 16 10 6 0 7 -4 4 -10z m2145 -191 c34 -45 58 -84 54 -88 -4 -3 -9 0 -11 7
-3 7 -29 46 -58 87 -30 41 -52 75 -50 75 3 0 32 -37 65 -81z m-2366 -19 c4
-24 3 -29 -3 -15 -4 11 -11 36 -15 55 -4 24 -3 29 3 15 4 -11 11 -36 15 -55z
m2287 53 c13 -16 12 -17 -3 -4 -10 7 -18 15 -18 17 0 8 8 3 21 -13z m-1497
-75 c-39 -40 -113 -116 -164 -168 -90 -92 -95 -92 -12 -1 24 26 38 50 35 60
-3 11 -2 12 4 4 6 -9 36 15 103 82 52 52 97 95 100 95 2 0 -27 -33 -66 -72z
m1667 9 l23 -32 -23 20 c-13 11 -27 28 -33 39 -16 29 7 11 33 -27z m-2379
-172 c46 -92 90 -163 120 -197 7 -8 38 -41 68 -73 49 -51 50 -55 15 -27 -100
78 -237 293 -269 422 l-6 25 11 -25 c7 -14 34 -70 61 -125z m2431 99 c9 -16 8
-17 -5 -7 -8 7 -17 11 -20 8 -3 -3 -10 1 -16 8 -9 11 -7 13 9 12 12 -1 26 -10
32 -21z m-2863 -8 c0 -3 -4 -8 -10 -11 -5 -3 -10 -1 -10 4 0 6 5 11 10 11 6 0
10 -2 10 -4z m1444 -69 c-49 -53 -109 -104 -73 -61 9 10 14 26 12 34 -3 11 -2
12 4 3 7 -9 21 -1 53 32 61 62 64 57 4 -8z m1440 17 c7 -28 -8 -54 -31 -54
-11 0 -8 5 7 18 19 15 21 22 11 40 -13 25 -14 35 -2 28 5 -3 12 -18 15 -32z
m-2197 12 c0 -8 -6 -12 -15 -9 -11 5 -11 7 0 14 7 5 13 9 14 9 0 0 1 -6 1 -14z
m963 -31 c0 -5 -5 -3 -10 5 -5 8 -10 20 -10 25 0 6 5 3 10 -5 5 -8 10 -19 10
-25z m400 -65 c8 -5 11 -10 5 -10 -5 0 -17 5 -25 10 -8 5 -10 10 -5 10 6 0 17
-5 25 -10z m70 -19 c14 -4 20 -9 15 -13 -6 -3 -23 1 -40 8 -32 14 -17 17 25 5z
m820 -55 c0 -2 -8 -10 -17 -17 -16 -13 -17 -12 -4 4 13 16 21 21 21 13z
m-2084 -15 c-4 -5 0 -12 6 -14 8 -3 6 -6 -4 -6 -18 -1 -24 10 -11 22 9 10 15
8 9 -2z m329 -71 c-3 -5 -12 -10 -18 -10 -7 0 -6 4 3 10 19 12 23 12 15 0z
m-455 -85 c-6 -8 -8 -20 -4 -26 4 -7 3 -9 -4 -5 -19 11 -22 -11 -4 -31 34 -39
192 -125 274 -149 46 -13 103 -31 128 -39 25 -8 77 -19 115 -24 l70 -10 -69 4
c-147 9 -330 74 -470 166 -36 24 -67 49 -68 57 -2 8 -56 -46 -122 -122 -108
-125 -140 -157 -120 -123 10 16 187 220 238 275 38 40 62 58 36 27z m780 5
c13 -8 13 -10 -2 -10 -9 0 -20 5 -23 10 -8 13 5 13 25 0z m225 -80 c-4 -12 -9
-19 -12 -17 -3 3 -2 15 2 27 4 12 9 19 12 17 3 -3 2 -15 -2 -27z m725 -71 c40
-36 40 -45 0 -13 -8 7 -26 22 -40 33 -14 11 -20 20 -15 20 6 0 30 -18 55 -40z
m-965 -99 c-19 -21 -19 -21 26 -15 39 4 41 4 14 -5 -16 -6 -64 -12 -105 -15
-64 -4 -69 -3 -31 5 24 5 47 7 51 5 4 -2 18 7 30 20 28 30 41 34 15 5z m995
-174 c0 -3 -4 -8 -10 -11 -5 -3 -10 -1 -10 4 0 6 5 11 10 11 6 0 10 -2 10 -4z
m-3172 -302 l22 -6 0 -299 0 -299 160 0 160 0 0 -45 0 -45 -207 2 -208 3 -3
335 c-1 184 0 341 3 347 5 14 36 17 73 7z m493 -209 c4 -160 10 -223 23 -262
45 -137 218 -187 339 -99 15 11 40 45 55 76 26 54 27 59 30 273 4 240 2 235
67 223 l35 -7 0 -183 c0 -261 -20 -346 -103 -429 -62 -62 -116 -82 -222 -82
-69 1 -101 6 -136 22 -61 27 -116 84 -148 152 -25 55 -26 62 -29 288 -4 255
-7 244 58 240 l25 -2 6 -210z m834 209 c12 -3 77 -91 165 -224 l145 -220 20
27 c11 15 78 113 149 217 70 105 136 195 146 200 10 5 35 5 54 2 l36 -7 0
-344 0 -345 -45 0 -45 0 0 173 c0 148 -8 347 -14 354 -2 3 -229 -322 -259
-370 -13 -22 -24 -28 -45 -25 -21 2 -36 17 -67 66 -22 35 -84 126 -137 204
l-98 140 -2 -268 -3 -269 -45 0 -45 0 -1 340 c0 229 3 342 10 347 13 9 53 10
81 2z m1023 -346 l2 -348 -45 0 -45 0 0 351 0 350 43 -3 42 -3 3 -347z m327
319 c83 -100 402 -476 416 -491 16 -18 17 -6 19 244 0 145 3 267 6 272 7 10
55 10 72 0 9 -7 12 -83 10 -348 l-3 -339 -41 -3 c-39 -3 -44 0 -85 50 -24 29
-125 150 -224 268 l-180 215 -5 -265 -5 -265 -42 0 -42 0 -2 340 c-1 187 -1
344 0 349 2 18 86 -3 106 -27z m836 6 c2 -16 4 -172 4 -348 l0 -320 -47 -3
-48 -3 0 344 c0 189 3 347 7 350 3 4 23 7 44 7 33 0 37 -3 40 -27z m252 4 c18
-20 167 -207 202 -254 8 -10 37 20 125 132 l115 145 42 0 c23 0 44 -4 48 -10
3 -5 -32 -56 -78 -112 -46 -57 -105 -131 -131 -166 l-48 -63 28 -37 c16 -20
75 -95 131 -165 57 -71 103 -132 103 -138 0 -5 -22 -9 -48 -9 l-49 0 -113 140
c-62 77 -116 140 -119 140 -3 -1 -44 -49 -91 -107 -147 -184 -136 -173 -191
-173 -27 0 -49 3 -49 6 0 3 49 65 108 137 59 73 120 148 135 168 l27 36 -51
69 c-29 38 -87 112 -130 166 -44 53 -79 99 -79 102 0 6 29 13 63 15 17 1 36
-8 50 -22z"/>
<path d="M4314 6389 c-39 -11 -54 -39 -21 -40 l22 0 -23 -10 c-16 -6 -22 -15
-18 -26 2 -10 7 -33 11 -50 4 -18 11 -33 16 -33 12 0 36 39 44 72 5 20 3 27
-12 31 -15 4 -14 5 5 6 12 0 22 7 22 16 0 9 -6 12 -17 8 -11 -4 -14 -3 -9 5 4
7 14 12 22 12 8 0 14 5 14 10 0 12 -13 12 -56 -1z"/>
<path d="M4175 6380 l-70 -6 73 -2 c46 -1 71 -6 67 -12 -3 -5 -1 -10 4 -10 6
0 11 9 11 20 0 11 -3 19 -7 18 -5 -1 -39 -4 -78 -8z"/>
<path d="M4394 6382 c-7 -4 -14 -18 -15 -31 -3 -20 4 -28 40 -48 24 -13 45
-22 46 -21 5 6 -45 108 -52 108 -5 0 -13 -4 -19 -8z"/>
<path d="M4446 6367 c9 -29 33 -77 39 -77 15 0 85 34 85 41 0 11 -45 34 -93
47 -36 10 -38 10 -31 -11z"/>
<path d="M4110 6350 c-25 -4 -48 -5 -53 -3 -4 2 -6 -1 -5 -9 2 -7 -4 -12 -13
-10 -9 1 -21 -9 -27 -23 -16 -35 -16 -35 16 -36 24 -1 23 -2 -8 -8 -26 -4 -36
-12 -40 -31 -7 -31 -17 -9 -15 35 0 21 5 29 15 27 8 -2 12 0 8 4 -4 4 -2 14 5
22 18 22 -48 -13 -74 -39 -10 -10 -19 -17 -19 -14 0 8 -38 -14 -66 -37 -13
-12 -21 -25 -18 -30 3 -4 -1 -8 -9 -8 -16 0 -47 -41 -47 -63 0 -7 -7 -22 -16
-33 -15 -19 -16 -19 -9 1 24 69 25 77 8 63 -51 -40 -123 -129 -123 -150 0 -4
8 -4 18 -1 15 6 15 5 3 -10 -7 -9 -21 -17 -31 -17 -9 0 -25 -9 -36 -21 -18
-20 -18 -21 16 -50 19 -16 52 -40 74 -54 32 -21 41 -24 53 -13 14 11 15 10 9
-10 -6 -16 -3 -22 8 -22 9 0 16 -4 16 -8 0 -5 17 -16 38 -26 20 -10 82 -46
137 -81 55 -34 119 -72 141 -83 l42 -21 -20 51 c-24 65 -38 91 -52 100 -6 4
-47 9 -91 10 -71 2 -73 2 -20 5 93 5 107 10 100 36 -5 17 -2 15 14 -8 12 -16
21 -35 21 -42 0 -25 68 -160 83 -166 11 -4 23 5 38 29 12 19 20 36 18 38 -2 2
-29 19 -60 39 -31 19 -60 41 -65 48 -4 7 8 1 27 -13 19 -14 49 -33 68 -43 l35
-17 43 45 c51 55 58 51 8 -4 -19 -22 -35 -43 -35 -48 0 -13 35 -20 54 -9 13 7
16 4 16 -23 0 -24 4 -30 15 -25 8 3 15 0 16 -7 0 -7 4 -1 10 11 5 13 6 28 3
33 -3 5 0 8 7 7 8 -2 12 16 11 62 l0 65 10 -62 11 -61 36 5 c27 3 32 2 21 -6
-8 -6 -23 -11 -32 -11 -10 0 -18 -4 -18 -9 0 -5 11 -8 25 -5 14 2 41 -2 60
-10 19 -8 35 -12 35 -8 0 4 -27 49 -60 100 -32 51 -57 92 -55 92 2 0 31 -39
65 -87 76 -109 86 -116 99 -66 5 21 15 54 20 73 l11 35 -6 -40 c-3 -22 -8 -50
-11 -62 -11 -46 23 -22 80 55 31 42 71 92 87 110 31 32 31 33 13 55 -10 13
-25 22 -33 20 -11 -4 -12 -2 -2 4 10 7 8 14 -9 28 -11 11 -37 45 -56 77 -20
32 -38 58 -40 58 -3 0 -30 -21 -61 -46 l-57 -46 54 51 c30 28 53 53 50 55 -2
2 -22 15 -43 30 -21 14 -32 26 -24 26 8 0 19 -5 26 -12 17 -17 27 -1 11 18 -8
9 -28 42 -44 73 -30 56 -30 56 -75 54 -25 0 -35 1 -22 4 33 7 27 20 -19 42
-28 14 -37 15 -29 5 7 -7 9 -14 4 -14 -5 0 -2 -5 6 -10 9 -6 10 -10 3 -10 -7
0 -16 7 -21 16 -7 13 -11 6 -20 -27 -6 -24 -8 -47 -4 -51 20 -20 155 -68 175
-62 22 6 22 6 2 -9 -17 -13 -24 -13 -50 -2 -91 40 -124 56 -135 70 -16 20 -27
19 -35 -2 -3 -10 -19 -34 -36 -53 l-31 -35 31 47 31 46 -53 7 c-28 4 -61 12
-72 17 -22 9 20 6 84 -8 33 -7 33 -7 27 25 -3 17 -9 45 -12 61 -3 17 -9 30
-12 30 -4 0 -33 -25 -66 -55 -32 -30 -70 -61 -85 -70 -26 -16 -26 -16 -5 3
134 117 140 124 109 117 -16 -4 -47 -13 -69 -21 -21 -8 -40 -13 -43 -10 -2 2
17 12 44 21 87 31 92 34 53 33 -19 0 -55 -4 -80 -8z m-40 -44 c0 -2 -7 -7 -16
-10 -8 -3 -12 -2 -9 4 6 10 25 14 25 6z m-142 -61 c-34 -35 -73 -52 -83 -35
-3 5 3 7 15 5 13 -2 31 8 52 31 18 19 36 34 41 34 5 0 -6 -16 -25 -35z m175 8
c-7 -2 -19 -2 -25 0 -7 3 -2 5 12 5 14 0 19 -2 13 -5z m284 -9 c-3 -3 -12 -4
-19 -1 -8 3 -5 6 6 6 11 1 17 -2 13 -5z m-518 -68 c-2 -2 -15 -7 -29 -10 l-25
-7 25 15 c21 12 42 14 29 2z m181 1 c0 -2 -12 -14 -27 -28 l-28 -24 24 28 c23
25 31 32 31 24z m267 -29 c-3 -8 -6 -5 -6 6 -1 11 2 17 5 13 3 -3 4 -12 1 -19z
m-327 -26 c0 -5 -6 -9 -12 -9 -7 0 -22 -4 -33 -7 -13 -5 -12 -2 5 8 29 17 40
20 40 8z m224 -37 c-9 -14 -19 -23 -22 -20 -5 4 26 45 35 45 2 0 -4 -11 -13
-25z m113 -7 c-3 -7 -5 -2 -5 12 0 14 2 19 5 13 2 -7 2 -19 0 -25z m-500 -14
c-3 -3 -12 -4 -19 -1 -8 3 -5 6 6 6 11 1 17 -2 13 -5z m510 -36 c-3 -7 -5 -2
-5 12 0 14 2 19 5 13 2 -7 2 -19 0 -25z m-613 -20 c-4 -13 -7 -27 -6 -31 1 -5
-2 -6 -7 -3 -6 4 -6 17 1 37 6 16 12 28 15 25 3 -2 1 -15 -3 -28z m-28 15
c-10 -11 -37 -12 -30 -2 3 5 12 9 21 9 9 0 13 -3 9 -7z m464 -23 c-6 -12 -13
-20 -14 -18 -1 1 -8 12 -16 23 -14 18 -14 19 2 6 15 -11 19 -11 24 3 4 9 9 15
11 12 3 -2 -1 -14 -7 -26z m190 -8 c0 -14 7 -18 33 -16 25 1 26 0 5 -3 -17 -3
-28 -11 -28 -20 0 -23 -9 -11 -20 26 -5 19 -5 31 1 31 5 0 9 -8 9 -18z m145 9
c-6 -5 -23 -12 -40 -16 l-30 -6 30 15 c35 17 53 20 40 7z m-508 -23 c-3 -8 -6
-5 -6 6 -1 11 2 17 5 13 3 -3 4 -12 1 -19z m-345 -24 c-5 -9 -8 -24 -7 -33 1
-9 0 -10 -2 -3 -3 7 -9 9 -15 6 -11 -7 -4 9 15 34 14 17 20 15 9 -4z m56 -29
c-6 -14 -13 -24 -14 -22 -6 6 9 47 17 47 5 0 3 -11 -3 -25z m299 3 c-3 -8 -6
-5 -6 6 -1 11 2 17 5 13 3 -3 4 -12 1 -19z m493 19 c0 -2 -15 -16 -32 -33
l-33 -29 29 33 c28 30 36 37 36 29z m135 -49 c-4 -18 -11 -37 -15 -42 -5 -5
-4 10 2 33 12 48 23 56 13 9z m-860 -26 l-29 -27 23 27 c14 16 20 32 16 40 -7
10 -5 11 6 0 11 -10 8 -17 -16 -40z m242 6 c-3 -8 -6 -5 -6 6 -1 11 2 17 5 13
3 -3 4 -12 1 -19z m413 -12 c0 -2 -8 -10 -17 -17 -16 -13 -17 -12 -4 4 13 16
21 21 21 13z m315 -17 c5 -5 -5 -4 -23 2 -17 6 -32 13 -32 16 0 7 43 -8 55
-18z m-394 -6 c13 -16 12 -17 -3 -4 -10 7 -18 15 -18 17 0 8 8 3 21 -13z
m-324 -15 c-3 -8 -6 -5 -6 6 -1 11 2 17 5 13 3 -3 4 -12 1 -19z m133 18 c0 -2
-8 -10 -17 -17 -16 -13 -17 -12 -4 4 13 16 21 21 21 13z m-200 -43 c0 -7 -39
17 -46 28 -3 6 5 3 20 -6 14 -10 26 -19 26 -22z m680 17 c-19 -3 -44 -3 -55 0
-13 3 -4 7 25 10 54 7 80 -3 30 -10z m-250 -4 c0 -20 -20 -25 -65 -16 -36 7
-37 8 -10 10 17 1 39 5 50 10 11 5 21 9 23 9 1 1 2 -5 2 -13z m138 -3 c-21 -2
-55 -2 -75 0 -21 2 -4 4 37 4 41 0 58 -2 38 -4z m-265 -20 c-7 -2 -19 -2 -25
0 -7 3 -2 5 12 5 14 0 19 -2 13 -5z m-60 -10 c-7 -2 -19 -2 -25 0 -7 3 -2 5
12 5 14 0 19 -2 13 -5z m-166 -115 c-2 -13 -4 -5 -4 17 -1 22 1 32 4 23 2 -10
2 -28 0 -40z"/>
<path d="M4532 6292 c-23 -9 -41 -21 -39 -27 2 -5 39 -11 82 -13 92 -3 97 4
10 13 -77 9 -83 15 -13 15 42 0 55 3 55 15 0 19 -38 18 -95 -3z"/>
<path d="M4510 6234 c0 -4 9 -21 20 -39 17 -27 25 -31 47 -27 26 5 62 37 63
56 0 4 -7 6 -15 3 -8 -4 -17 -2 -20 3 -7 11 -95 14 -95 4z"/>
<path d="M4680 6222 c0 -4 9 -8 19 -8 11 0 17 4 15 8 -3 4 -12 8 -20 8 -8 0
-14 -4 -14 -8z"/>
<path d="M4630 6185 c-9 -18 -22 -25 -42 -25 -28 0 -39 -22 -17 -35 6 -4 8
-13 5 -21 -3 -8 -4 -14 -2 -14 3 0 11 -3 20 -6 10 -4 16 -1 16 7 0 8 11 38 25
67 24 52 20 74 -5 27z"/>
<path d="M4678 6193 c7 -3 16 -2 19 1 4 3 -2 6 -13 5 -11 0 -14 -3 -6 -6z"/>
<path d="M4636 6120 l-24 -55 25 -45 c14 -25 42 -63 63 -85 21 -22 43 -50 49
-62 13 -25 37 -21 46 7 3 10 13 21 22 25 14 5 14 3 -2 -15 -23 -25 -12 -39 18
-22 19 11 18 10 -3 -9 -14 -12 -24 -26 -22 -30 1 -5 -4 -9 -10 -10 -7 -1 -22
-2 -33 -3 -20 -1 -123 -127 -150 -183 -16 -34 -7 -73 16 -73 14 0 79 65 79 79
0 15 -26 14 -60 -4 -17 -9 -30 -11 -30 -6 0 5 21 17 48 27 26 10 60 31 75 46
28 28 51 28 61 2 9 -23 -23 -64 -49 -64 -13 0 -30 -10 -39 -25 -13 -19 -13
-23 -2 -19 8 3 17 12 20 20 3 8 12 11 21 8 11 -5 13 -10 5 -19 -8 -10 -7 -14
7 -18 14 -3 12 -6 -9 -11 -16 -5 -28 -12 -28 -17 0 -5 -5 -9 -10 -9 -6 0 -27
-7 -48 -17 -20 -9 -40 -15 -44 -15 -14 3 -8 -9 36 -78 50 -76 72 -93 113 -85
26 6 27 5 9 -9 -14 -11 -17 -22 -12 -43 7 -28 7 -28 -13 5 -12 17 -25 32 -31
32 -15 0 -12 -8 11 -41 23 -32 16 -36 -27 -15 -16 8 -42 17 -59 21 -16 3 1 -8
40 -24 77 -34 78 -35 71 -22 -3 4 8 8 24 7 17 -1 30 -3 30 -6 0 -3 11 -6 25
-6 13 -1 36 -11 51 -23 32 -25 44 -27 44 -6 0 8 4 15 10 15 5 0 7 -7 3 -16 -3
-9 0 -20 8 -25 24 -17 -44 2 -76 20 -37 21 -74 31 -79 22 -5 -7 165 -77 174
-72 3 2 4 7 3 12 -4 14 10 11 35 -7 12 -8 19 -20 16 -26 -13 -21 61 4 90 31
l29 26 -18 -28 c-10 -15 -25 -32 -34 -36 -9 -5 -14 -11 -11 -14 7 -6 252 -69
254 -65 0 2 6 12 12 23 13 24 30 101 38 168 4 36 3 47 -7 44 -6 -2 -11 -10 -9
-16 1 -8 -3 -9 -15 -2 -16 8 -17 20 -13 87 l4 79 6 -64 c3 -40 10 -66 18 -69
7 -2 11 2 10 10 -2 7 2 12 7 11 6 -1 11 17 12 38 2 22 -1 38 -6 35 -5 -3 -9
16 -9 42 -1 26 -9 65 -19 87 l-18 40 -6 -65 -6 -65 -1 68 c-1 37 -5 67 -9 67
-3 0 -16 -8 -27 -17 -21 -18 -21 -18 -3 3 9 11 17 24 17 28 0 4 -30 39 -67 77
-37 39 -60 67 -51 64 8 -3 41 -36 73 -71 49 -55 60 -63 71 -52 19 19 19 53 -2
123 -35 121 -42 71 -9 -62 8 -31 9 -55 4 -59 -5 -3 -9 6 -9 20 0 14 -5 28 -11
32 -6 4 -33 51 -59 105 l-47 99 -28 -42 c-22 -34 -25 -45 -16 -60 16 -25 14
-36 -3 -13 -13 18 -15 18 -42 -14 -16 -18 -34 -45 -41 -60 -8 -16 -12 -20 -13
-9 0 9 16 35 35 58 28 34 33 45 24 56 -9 11 -9 13 2 9 8 -3 24 9 38 30 18 27
22 42 17 69 -11 58 -33 74 -106 80 -95 8 -140 -1 -140 -28 0 -17 -2 -18 -10
-6 -9 13 -10 13 -10 0 0 -12 -2 -13 -9 -1 -5 8 -19 12 -35 9 -14 -3 -27 0 -29
6 -2 7 -10 6 -22 -4 -10 -8 -16 -10 -12 -3 5 8 -13 22 -56 42 -62 28 -150 81
-134 81 4 0 30 -11 57 -25 31 -16 66 -25 94 -25 25 0 56 -4 70 -10 30 -11 42
2 26 27 -11 17 -11 17 -6 -1 6 -16 4 -17 -9 -6 -8 7 -12 16 -10 21 3 4 -7 26
-23 48 -28 38 -30 39 -47 23 -18 -16 -18 -16 -5 1 12 16 12 20 -1 29 -11 8
-11 9 4 4 9 -3 17 -1 17 3 0 5 -29 11 -65 13 l-65 3 -24 -55z m54 -55 c16 -19
1 -19 -24 0 -16 12 -17 15 -4 15 8 0 21 -7 28 -15z m429 -180 c0 -5 -8 6 -19
25 -11 19 -19 40 -19 45 0 6 8 -6 19 -25 11 -19 19 -39 19 -45z m-233 23 c-18
-26 -22 -17 -5 14 6 11 13 17 16 15 3 -3 -2 -16 -11 -29z m97 -18 c7 -10 40
-35 72 -55 32 -19 55 -35 50 -35 -14 0 -99 51 -129 79 -20 18 -27 21 -23 9 4
-12 2 -15 -9 -11 -9 3 -29 -10 -51 -33 -20 -22 -31 -29 -25 -18 13 24 78 84
92 84 5 0 15 -9 23 -20z m-29 -56 c3 -8 2 -12 -4 -9 -6 3 -10 10 -10 16 0 14
7 11 14 -7z m-94 -35 c17 -13 18 -17 5 -10 -33 17 -51 31 -40 31 6 0 21 -10
35 -21z m-50 -19 c6 -11 8 -20 6 -20 -3 0 -10 9 -16 20 -6 11 -8 20 -6 20 3 0
10 -9 16 -20z m215 -20 c9 -16 13 -30 11 -30 -3 0 -12 14 -21 30 -9 17 -13 30
-11 30 3 0 12 -13 21 -30z m-100 0 c4 -6 29 -22 56 -35 27 -14 49 -28 49 -30
0 -7 -89 39 -115 59 -11 8 -15 16 -8 16 6 0 15 -5 18 -10z m-108 -32 c-3 -8
-6 -5 -6 6 -1 11 2 17 5 13 3 -3 4 -12 1 -19z m243 -40 c0 -5 -4 -8 -10 -8 -5
0 -10 10 -10 23 0 18 2 19 10 7 5 -8 10 -18 10 -22z m-180 -107 c-1 -13 -29
45 -29 59 0 8 6 0 14 -19 8 -18 15 -36 15 -40z m224 43 c3 -8 2 -12 -4 -9 -6
3 -10 10 -10 16 0 14 7 11 14 -7z m-41 -9 c-3 -9 -8 -14 -10 -11 -3 3 -2 9 2
15 9 16 15 13 8 -4z m-106 -57 c-3 -8 -6 -5 -6 6 -1 11 2 17 5 13 3 -3 4 -12
1 -19z m-17 -86 c14 -15 -85 46 -113 70 -17 15 0 7 38 -18 39 -25 72 -49 75
-52z m244 29 c-5 -7 -24 11 -35 32 -11 20 -9 20 13 -3 13 -14 23 -27 22 -29z
m96 45 c0 -2 -8 -10 -17 -17 -16 -13 -17 -12 -4 4 13 16 21 21 21 13z m-313
-38 c-3 -7 -5 -2 -5 12 0 14 2 19 5 13 2 -7 2 -19 0 -25z m39 -38 c-1 -31 -4
-34 -30 -24 -8 3 -12 12 -9 21 4 11 8 12 13 3 5 -9 10 -6 15 9 9 29 12 26 11
-9z m194 2 c0 -13 -12 -22 -22 -16 -10 6 -1 24 13 24 5 0 9 -4 9 -8z m-250
-25 c0 -2 -10 -12 -22 -23 l-23 -19 19 23 c18 21 26 27 26 19z m210 0 c0 -2
-17 -19 -37 -38 l-38 -34 34 38 c33 34 41 42 41 34z m37 -69 c-3 -8 -6 -5 -6
6 -1 11 2 17 5 13 3 -3 4 -12 1 -19z m-309 -10 c-8 -13 -21 -33 -29 -45 -8
-13 -17 -23 -21 -23 -4 0 7 20 24 45 33 46 52 63 26 23z m99 -25 c-3 -10 -5
-4 -5 12 0 17 2 24 5 18 2 -7 2 -21 0 -30z m103 24 c0 -2 -12 -14 -27 -28
l-28 -24 24 28 c23 25 31 32 31 24z m225 -17 c10 -11 16 -20 13 -20 -3 0 -13
9 -23 20 -10 11 -16 20 -13 20 3 0 13 -9 23 -20z m-108 -32 c-3 -7 -5 -2 -5
12 0 14 2 19 5 13 2 -7 2 -19 0 -25z m-220 -30 c-3 -7 -5 -2 -5 12 0 14 2 19
5 13 2 -7 2 -19 0 -25z m227 -10 c-5 -8 -2 -9 9 -5 10 3 17 2 17 -2 0 -13 -28
-22 -35 -12 -3 5 -24 7 -48 5 l-42 -3 44 9 c24 5 46 12 49 15 10 9 13 5 6 -7z
m-214 -43 c0 -19 -2 -35 -4 -35 -2 0 -6 16 -8 35 -2 19 0 35 4 35 4 0 8 -16 8
-35z m190 12 c0 -2 -10 -12 -22 -23 l-23 -19 19 23 c18 21 26 27 26 19z m177
-19 c-3 -8 -6 -5 -6 6 -1 11 2 17 5 13 3 -3 4 -12 1 -19z m-16 -45 c-12 -20
-14 -14 -5 12 4 9 9 14 11 11 3 -2 0 -13 -6 -23z m-139 -38 c2 -19 0 -35 -4
-35 -4 0 -8 16 -8 35 0 19 2 35 4 35 2 0 6 -16 8 -35z m113 -30 c-9 -20 -19
-34 -23 -31 -3 4 2 22 13 41 24 45 30 39 10 -10z"/>
<path d="M4850 6103 c0 -6 9 -21 21 -34 l20 -24 -17 30 c-24 39 -24 40 -24 28z"/>
<path d="M5069 6052 c6 -11 8 -22 5 -25 -7 -7 33 -33 66 -42 24 -7 24 -7 8 11
-9 11 -21 31 -27 44 -7 18 -10 20 -10 8 -1 -10 -6 -18 -12 -18 -5 0 -8 4 -5 8
2 4 -4 14 -15 20 -18 12 -19 11 -10 -6z"/>
<path d="M4926 6052 c-4 -7 -4 -12 1 -12 4 0 2 -4 -6 -9 -19 -12 -6 -40 18
-38 11 0 17 5 15 9 -3 5 -10 6 -15 3 -5 -4 -9 1 -9 10 0 10 6 15 13 12 8 -3
14 1 14 9 0 7 -4 11 -8 8 -4 -2 -9 1 -11 8 -3 9 -6 9 -12 0z"/>
<path d="M5003 6035 c0 -8 4 -12 9 -9 5 3 16 0 25 -8 12 -9 15 -9 9 -1 -12 22
-43 34 -43 18z"/>
<path d="M4882 5998 c-19 -19 -14 -28 16 -27 15 1 20 3 10 6 -10 2 -15 10 -11
19 6 17 1 18 -15 2z"/>
<path d="M4795 5990 c3 -5 17 -10 31 -10 14 0 22 4 19 10 -3 6 -17 10 -31 10
-14 0 -22 -4 -19 -10z"/>
<path d="M5243 5923 c4 -3 1 -13 -7 -22 -12 -14 -8 -28 30 -106 37 -77 43 -84
38 -50 -3 22 -15 58 -26 79 -15 31 -16 37 -4 27 14 -12 16 -10 16 13 0 19 -5
26 -16 24 -10 -2 -19 3 -21 10 -3 6 0 12 7 12 6 0 8 5 5 10 -3 6 -11 10 -17
10 -6 0 -8 -3 -5 -7z"/>
<path d="M4787 5853 c-4 -3 -7 -13 -7 -22 1 -13 3 -13 11 2 11 19 8 33 -4 20z"/>
<path d="M3634 5842 c3 -5 61 -42 128 -82 68 -40 152 -92 188 -115 63 -40 116
-67 95 -47 -30 28 -421 260 -411 244z"/>
<path d="M3650 5703 c0 -19 595 -342 607 -330 3 3 -15 16 -39 28 -45 23 -132
69 -278 146 -47 25 -101 56 -120 68 -73 46 -158 95 -164 95 -3 0 -6 -3 -6 -7z"/>
<path d="M4190 5603 c-8 -15 -16 -31 -18 -34 -4 -10 58 -30 70 -23 5 3 7 12 4
19 -2 7 1 18 7 25 10 10 8 12 -6 7 -13 -5 -17 -2 -15 10 5 29 -27 26 -42 -4z"/>
<path d="M5374 5601 c1 -16 4 -33 8 -36 3 -4 5 7 4 24 -3 40 -14 51 -12 12z"/>
<path d="M3980 5595 c0 -2 23 -16 50 -30 28 -14 50 -23 50 -20 0 2 -22 16 -50
30 -27 14 -50 23 -50 20z"/>
<path d="M4087 5569 c7 -7 15 -10 18 -7 3 3 -2 9 -12 12 -14 6 -15 5 -6 -5z"/>
<path d="M4273 5565 c0 -8 4 -12 8 -9 4 2 10 -2 12 -8 4 -8 6 -9 6 -2 1 6 -5
17 -12 23 -10 8 -14 7 -14 -4z"/>
<path d="M4090 5535 c0 -2 18 -14 40 -25 22 -11 40 -18 40 -15 0 2 -18 14 -40
25 -22 11 -40 18 -40 15z"/>
<path d="M4610 5488 c0 -3 6 -18 14 -33 8 -15 13 -33 11 -39 -3 -6 11 -21 30
-33 l35 -22 -41 62 c-48 71 -49 72 -49 65z"/>
<path d="M4130 5475 c0 -2 27 -18 60 -35 33 -17 60 -28 60 -25 0 2 -27 18 -60
35 -33 17 -60 28 -60 25z"/>
<path d="M4015 5419 c-4 -6 -5 -12 -4 -13 5 -5 293 -146 297 -146 15 0 -22 27
-76 55 -37 19 -74 39 -82 44 -136 80 -126 76 -135 60z"/>
<path d="M4628 5360 c13 -15 27 -20 38 -16 22 8 9 22 -30 32 l-30 7 22 -23z"/>
<path d="M4270 5366 c0 -2 7 -7 16 -10 8 -3 12 -2 9 4 -6 10 -25 14 -25 6z"/>
<path d="M4320 5263 c0 -13 45 -43 98 -64 31 -12 84 -37 117 -54 85 -44 95
-47 89 -27 -4 12 0 11 14 -5 21 -24 46 -31 40 -12 -2 6 -7 10 -12 9 -5 -1 -12
3 -16 9 -3 6 -15 13 -26 15 -28 6 -126 45 -150 61 -32 20 -154 75 -154 68z"/>
<path d="M4480 5262 c0 -4 26 -18 57 -32 74 -33 80 -35 68 -23 -15 15 -125 63
-125 55z"/>
<path d="M4445 5236 c73 -46 99 -59 161 -81 58 -20 62 -20 72 -4 9 14 6 20
-13 33 -38 25 -53 18 -20 -9 33 -27 15 -36 -22 -10 -18 13 -159 76 -203 92 -8
2 3 -7 25 -21z"/>
<path d="M4590 5251 c24 -18 110 -62 110 -56 0 3 21 -5 48 -19 26 -13 58 -27
72 -31 14 -4 43 -15 65 -25 67 -30 266 -100 339 -121 54 -14 72 -16 77 -7 11
17 8 18 -53 34 -29 7 -84 23 -123 34 -38 12 -77 23 -85 25 -30 7 -207 74 -320
120 -143 58 -150 61 -130 46z"/>
<path d="M4756 5215 c60 -29 169 -71 234 -89 25 -7 56 -18 67 -25 12 -6 30
-11 40 -10 10 0 -4 8 -32 19 -377 139 -380 140 -309 105z"/>
<path d="M5000 5160 c0 -5 5 -10 10 -10 6 0 10 5 10 10 0 6 -4 10 -10 10 -5 0
-10 -4 -10 -10z"/>
<path d="M4731 5145 c45 -24 181 -76 187 -71 3 3 -4 8 -14 12 -10 4 -55 22
-98 40 -80 34 -123 45 -75 19z"/>
<path d="M4692 5089 c4 -13 112 -71 156 -84 16 -4 22 -2 22 8 0 13 -33 29
-173 86 -5 2 -7 -3 -5 -10z"/>
<path d="M5135 5080 c11 -5 27 -9 35 -9 13 -1 13 0 0 9 -8 5 -24 9 -35 9 l-20
0 20 -9z"/>
<path d="M5205 5060 c11 -5 29 -9 40 -9 l20 0 -20 9 c-11 5 -29 9 -40 9 l-20
0 20 -9z"/>
<path d="M5285 5040 c11 -5 29 -8 40 -8 16 0 15 2 -5 8 -34 11 -60 11 -35 0z"/>
<path d="M5305 4930 c-3 -6 0 -12 7 -14 7 -3 36 -12 63 -20 72 -23 186 -43
288 -51 83 -7 87 -7 87 13 0 12 4 23 9 26 4 3 5 -9 2 -26 l-7 -32 -59 3 c-79
3 -269 36 -324 55 -46 17 -109 22 -81 7 8 -4 41 -14 73 -21 31 -7 55 -15 53
-17 -4 -5 -109 15 -135 25 -8 3 -12 1 -8 -5 4 -6 43 -20 87 -32 173 -47 341
-65 369 -38 11 10 13 10 7 0 -5 -10 3 -13 31 -13 44 0 83 23 83 49 0 10 7 24
15 31 8 7 15 23 15 35 0 22 -1 22 -42 8 -66 -23 -279 -20 -405 6 -116 24 -120
24 -128 11z m523 -87 c-10 -2 -28 -2 -40 0 -13 2 -5 4 17 4 22 1 32 -1 23 -4z"/>
<path d="M5074 4668 l-29 -33 33 29 c17 17 32 31 32 33 0 8 -8 1 -36 -29z"/>
</g>
</svg>
